# Blender v2.79 (sub 0) OBJ File: 'projecttexturing.blend'
# www.blender.org
mtllib knight-custom-black.mtl
o Plane
v 0.800000 -0.000000 0.400000
v 0.800000 -0.000000 0.600000
v 0.200000 -0.000000 0.600000
v 0.200000 -0.000000 0.400000
v 0.800000 1.000000 0.400000
v 0.200000 1.000000 0.400000
v 0.200000 1.000000 0.600000
v 0.800000 1.000000 0.600000
v 0.400000 1.000000 0.400000
v 0.400000 1.000000 0.600000
v 0.200000 1.300000 0.600000
v 0.400000 1.300000 0.400000
v 0.200000 1.300000 0.400000
v 0.400000 1.300000 0.600000
v 0.600000 1.000000 0.600000
v 0.600000 1.000000 0.400000
v 0.800000 1.300000 0.400000
v 0.600000 1.300000 0.400000
v 0.600000 1.300000 0.600000
v 0.800000 1.300000 0.600000
vt 0.900000 0.700000
vt 0.900000 0.800000
vt 0.600000 0.800000
vt 0.600000 0.700000
vt 0.900000 0.700000
vt 0.600000 0.700000
vt 0.600000 0.800000
vt 0.900000 0.800000
vt 0.500000 0.700000
vt 1.000000 0.700000
vt 1.000000 0.800000
vt 0.500000 0.800000
vt 0.900000 0.500000
vt 0.900000 1.000000
vt 0.600000 1.000000
vt 0.600000 0.500000
vt 0.500000 0.800000
vt 1.000000 0.800000
vt 1.000000 0.700000
vt 0.500000 0.700000
vt 0.900000 0.000000
vt 0.900000 -0.500000
vt 0.600000 -0.500000
vt 0.600000 0.000000
vt 0.000000 0.700000
vt 0.000000 0.800000
vt 0.000000 0.800000
vt 0.150000 0.800000
vt 0.700000 0.700000
vt 0.600000 0.700000
vt 0.600000 0.800000
vt 0.700000 0.800000
vt 0.150000 0.700000
vt 0.150000 0.800000
vt 0.700000 0.000000
vt 0.700000 0.150000
vt 0.600000 0.150000
vt 0.600000 0.000000
vt 0.150000 0.700000
vt 0.000000 0.700000
vt 0.700000 0.150000
vt 0.700000 0.000000
vt 0.600000 0.150000
vt 1.000000 0.800000
vt 1.000000 0.700000
vt 0.900000 0.700000
vt 0.800000 0.700000
vt 0.800000 0.800000
vt 0.900000 0.800000
vt 1.150000 0.700000
vt 1.150000 0.800000
vt 0.900000 1.150000
vt 0.800000 1.150000
vt 0.800000 1.000000
vt 0.000000 0.800000
vt 0.150000 0.800000
vt 0.150000 0.700000
vt 0.000000 0.700000
vt 0.900000 0.150000
vt 0.800000 0.000000
vt 0.800000 0.150000
vn 0.0000 -1.0000 -0.0000
vn 0.0000 1.0000 0.0000
vn 1.0000 -0.0000 0.0000
vn 0.0000 -0.0000 1.0000
vn -1.0000 0.0000 0.0000
vn 0.0000 0.0000 -1.0000
vn -0.6396 -0.4264 -0.6396
vn -0.9806 -0.1961 -0.0000
usemtl None
s off
f 1/1/1 2/2/1 3/3/1 4/4/1
f 5/5/2 6/6/2 7/7/2 8/8/2
f 1/9/3 5/10/3 8/11/3 2/12/3
f 2/13/4 8/14/4 7/15/4 3/16/4
f 3/17/5 7/18/5 6/19/5 4/20/5
f 5/21/6 1/22/6 4/23/6 6/24/6
f 9/25/7 10/26/7 7/27/7 11/28/7
f 12/29/2 13/30/2 11/31/2 14/32/2
f 9/25/3 12/33/3 14/34/3 10/26/3
f 10/35/4 14/36/4 11/37/4 7/38/4
f 7/27/5 11/28/5 13/39/5 6/40/5
f 12/41/6 9/42/6 6/24/6 13/43/6
f 1/9/8 2/12/8 15/44/8 16/45/8
f 17/46/2 18/47/2 19/48/2 20/49/2
f 1/9/3 17/50/3 20/51/3 2/12/3
f 2/13/4 20/52/4 19/53/4 15/54/4
f 15/55/5 19/56/5 18/57/5 16/58/5
f 17/59/6 1/22/6 16/60/6 18/61/6
